<?xml version="1.0" encoding="utf-8"?>
<!-- Generator: Adobe Illustrator 22.0.1, SVG Export Plug-In . SVG Version: 6.00 Build 0)  -->
<svg version="1.1" id="Layer_1" xmlns="http://www.w3.org/2000/svg" xmlns:xlink="http://www.w3.org/1999/xlink" x="0px" y="0px"
	 viewBox="0 0 203.5 203.6" style="enable-background:new 0 0 203.5 203.6;" xml:space="preserve">
<style type="text/css">
	.st0{enable-background:new    ;}
	.st1{fill:#383B4A;}
</style>
<title>join the team elipse</title>
<g id="bb715f5a-f3ac-436b-8d2f-fda5315fee53">
	<g id="b1663ca6-8cab-4b4e-b58a-d2c1ff66eccd">
		<g class="st0">
			<path class="st1" d="M113,15l-1.7-9l-0.1,0l-3.4,8.5l-2.8-0.3L102.4,2l2.6,0.3l1.7,9.2l0.1,0l3.5-8.6l2.7,0.3l1.7,9.2l0.1,0
				l3.4-8.7l2.6,0.3l-4.9,11.5L113,15z"/>
		</g>
		<g class="st0">
			<path class="st1" d="M128.8,15.8l-6.5-1.8l-1.8,2.1l-2.5-0.7l8.6-10l2.8,0.8l2.4,13l-2.6-0.7L128.8,15.8z M128.4,13.7l-1-5.7
				l-0.1,0l-3.7,4.4L128.4,13.7z"/>
		</g>
		<g class="st0">
			<path class="st1" d="M148.8,14l-5,10.8l-2.5-1.1l-2.8-11l-0.1,0l-3.7,8l-2.1-1l5-10.8l2.6,1.2l2.8,10.9l0.1,0l3.6-7.9L148.8,14z"
				/>
		</g>
		<g class="st0">
			<path class="st1" d="M160.5,24l-4.1-2.7l-5.4,8.2l-2-1.3l5.4-8.2l-4.1-2.7l1.1-1.7l10.1,6.7L160.5,24z"/>
		</g>
		<g class="st0">
			<path class="st1" d="M175.2,37.7l-3.4-3.5l-7,6.9l-1.7-1.7l7-6.9l-3.4-3.5l1.5-1.4l8.6,8.7L175.2,37.7z"/>
		</g>
		<g class="st0">
			<path class="st1" d="M181.4,52.4c-3.4,2.5-6.9,1.2-9.2-2s-2.5-6.9,0.9-9.4s6.9-1.2,9.2,2S184.8,49.9,181.4,52.4z M179.8,50.2
				c2.3-1.7,2.3-4,0.8-6.1s-3.7-2.8-6-1.1s-2.3,4-0.8,6.1C175.3,51.2,177.5,51.9,179.8,50.2z"/>
		</g>
		<g class="st0">
			<path class="st1" d="M188.4,69.8c-3.3,1.4-5.5-0.2-6.9-3.3c-1.4-3.1-1-5.8,2.3-7.2l1-0.4l1,2.2l-1,0.4c-1.9,0.8-2.2,2.4-1.4,4.2
				c0.8,1.8,2.1,2.7,4,1.9l6.6-2.9l1,2.2L188.4,69.8z"/>
		</g>
		<g class="st0">
			<path class="st1" d="M194.1,85.3c-4.1,1.1-6.8-1.4-7.8-5.3s0.2-7.3,4.3-8.4c4.1-1.1,6.8,1.4,7.8,5.3S198.2,84.2,194.1,85.3z
				 M193.4,82.7c2.8-0.7,3.6-2.8,3-5.3c-0.6-2.5-2.4-3.9-5.2-3.2c-2.8,0.7-3.6,2.8-3,5.3C188.9,82,190.7,83.4,193.4,82.7z"/>
		</g>
		<g class="st0">
			<path class="st1" d="M188.3,88.4l11.8-1.6l0.3,2.4l-11.8,1.6L188.3,88.4z"/>
		</g>
		<g class="st0">
			<path class="st1" d="M201.3,104.9l-11.9,0.4l-0.1-2.7L198,95l0-0.1l-8.8,0.3l-0.1-2.3l11.9-0.4l0.1,2.8l-8.5,7.4l0,0.1l8.7-0.3
				L201.3,104.9z"/>
		</g>
		<g class="st0">
			<path class="st1" d="M196.4,125.7l0.9-4.8l-9.7-1.8l0.4-2.4l9.7,1.8l0.9-4.8l2,0.4l-2.2,12L196.4,125.7z"/>
		</g>
		<g class="st0">
			<path class="st1" d="M193.5,140.7l-11.2-4l0.8-2.3l4.8,1.7l2.5-7.1l-4.8-1.7l0.8-2.3l11.2,4l-0.8,2.3l-4.5-1.6l-2.5,7.1l4.5,1.6
				L193.5,140.7z"/>
		</g>
		<g class="st0">
			<path class="st1" d="M186.5,144.2l-3.9,7.1l-1.7-0.9l3.9-7.1l-2.8-1.6l-4.1,7.5l-1.8-1l5.2-9.6l10.5,5.7l-5.1,9.4l-1.8-1l4-7.3
				L186.5,144.2z"/>
		</g>
		<g class="st0">
			<path class="st1" d="M172.1,169.2l3.2-3.7l-7.5-6.4l1.6-1.8l7.5,6.4l3.2-3.7l1.6,1.3l-7.9,9.3L172.1,169.2z"/>
		</g>
		<g class="st0">
			<path class="st1" d="M166.7,170.7l-6,5.3l-1.3-1.4l6-5.3l-2.1-2.4l-6.4,5.7l-1.3-1.5l8.2-7.2l7.9,8.9l-8,7.1l-1.3-1.5l6.2-5.5
				L166.7,170.7z"/>
		</g>
		<g class="st0">
			<path class="st1" d="M147.7,179.3l5.7-3.6l-0.4-2.8l2.2-1.4l1.6,13.1l-2.4,1.6l-11.2-6.9l2.2-1.4L147.7,179.3z M149.5,180.5
				l4.9,3.1l0.1,0l-0.8-5.7L149.5,180.5z"/>
		</g>
		<g class="st0">
			<path class="st1" d="M128.6,185.4l2.2-0.9l3.7,8.8l0.1,0l0-10.3l1.9-0.8l7.4,7.4l0.1,0l-3.7-8.9l2.1-0.9l4.6,11l-3.6,1.5
				l-6.5-6.7l-0.1,0l0.2,9.3l-3.6,1.5L128.6,185.4z"/>
		</g>
		<g class="st0">
			<path class="st1" d="M129.2,193.5c0.6,2.9-1.4,4.5-4.2,5.2c-2.9,0.7-5.1,0.1-5.6-2c-0.4-1.5,0.3-2.4,1.2-3.2l0.7-0.6
				c0.8-0.7,0.9-1.3,0.7-2l0-0.1l2.2-0.5l0.1,0.4c0.3,1.4-0.1,2.1-1,3.1l-0.7,0.7c-0.6,0.6-0.8,1-0.7,1.7c0.2,0.9,1.3,1.1,2.6,0.8
				s2.6-1.1,2.3-2.9L129.2,193.5z M124.1,189l-2.6,0.6l-0.6-2.4l2.6-0.6L124.1,189z"/>
		</g>
		<g class="st0">
			<path class="st1" d="M89.2,188.4l1.5,9.1l0.1,0l3.6-8.5l2.8,0.3l2.3,12.3l-2.6-0.3l-1.5-9.2l-0.1,0l-3.6,8.6l-2.7-0.3l-1.6-9.2
				l-0.1,0l-3.5,8.6l-2.6-0.3l5.1-11.4L89.2,188.4z"/>
		</g>
		<g class="st0">
			<path class="st1" d="M73.4,187.3l6.5,1.9l1.8-2.1l2.5,0.7l-8.8,9.8l-2.8-0.8l-2.2-13l2.5,0.7L73.4,187.3z M73.7,189.4l0.9,5.7
				l0.1,0l3.8-4.3L73.7,189.4z"/>
		</g>
		<g class="st0">
			<path class="st1" d="M53.3,188.8l5.1-10.7l2.5,1.2l2.7,11.1l0.1,0l3.8-8l2.1,1l-5.1,10.7l-2.5-1.2l-2.6-11l-0.1,0l-3.8,7.9
				L53.3,188.8z"/>
		</g>
		<g class="st0">
			<path class="st1" d="M41.7,178.6l4,2.8l5.6-8.1l2,1.4l-5.6,8.1l4,2.8l-1.2,1.7l-10-7L41.7,178.6z"/>
		</g>
		<g class="st0">
			<path class="st1" d="M27.2,164.7l3.4,3.5l7.1-6.8l1.7,1.7l-7.1,6.8l3.4,3.5l-1.5,1.4l-8.4-8.8L27.2,164.7z"/>
		</g>
		<g class="st0">
			<path class="st1" d="M21.3,149.9c3.5-2.5,6.9-1.2,9.2,2.1c2.3,3.3,2.4,7-1.1,9.4s-6.9,1.2-9.2-2.1
				C17.9,156,17.8,152.4,21.3,149.9z M22.8,152.1c-2.3,1.6-2.4,4-0.9,6.1c1.5,2.1,3.7,2.8,6,1.2s2.4-4,0.9-6.1
				C27.4,151.1,25.2,150.4,22.8,152.1z"/>
		</g>
		<g class="st0">
			<path class="st1" d="M14.6,132.3c3.3-1.4,5.5,0.3,6.8,3.4c1.3,3.1,0.9,5.8-2.4,7.2l-1,0.4l-0.9-2.2l1-0.4
				c1.9-0.8,2.2-2.4,1.4-4.2c-0.8-1.8-2.1-2.8-4-2l-6.7,2.8l-0.9-2.2L14.6,132.3z"/>
		</g>
		<g class="st0">
			<path class="st1" d="M9.3,116.8c4.1-1,6.8,1.5,7.7,5.4c0.9,3.9-0.3,7.3-4.5,8.3c-4.1,1-6.8-1.5-7.7-5.4S5.1,117.8,9.3,116.8z
				 M9.9,119.4c-2.8,0.7-3.7,2.8-3.1,5.3c0.6,2.5,2.4,4,5.1,3.3c2.8-0.7,3.7-2.8,3.1-5.3C14.4,120.2,12.6,118.7,9.9,119.4z"/>
		</g>
		<g class="st0">
			<path class="st1" d="M15.1,113.8l-11.8,1.5L3,112.8l11.8-1.5L15.1,113.8z"/>
		</g>
		<g class="st0">
			<path class="st1" d="M2.3,97.1l11.9-0.2l0,2.7L5.5,107l0,0.1l8.8-0.1l0,2.3l-11.9,0.2l0-2.8l8.6-7.2l0-0.1l-8.7,0.1L2.3,97.1z"/>
		</g>
		<g class="st0">
			<path class="st1" d="M7.6,76.3l-1,4.8l9.7,2l-0.5,2.4l-9.7-2l-1,4.8l-2-0.4l2.4-12L7.6,76.3z"/>
		</g>
		<g class="st0">
			<path class="st1" d="M10.7,61.3l11.2,4.2l-0.8,2.3l-4.8-1.8L13.7,73l4.8,1.8L17.6,77L6.4,72.9l0.8-2.3l4.5,1.7l2.6-7.1l-4.5-1.7
				L10.7,61.3z"/>
		</g>
		<g class="st0">
			<path class="st1" d="M17.8,58l3.9-7l1.7,0.9l-3.9,7l2.8,1.6l4.2-7.4l1.7,1l-5.4,9.5l-10.4-5.8l5.3-9.3l1.7,1l-4.1,7.2L17.8,58z"
				/>
		</g>
		<g class="st0">
			<path class="st1" d="M32.5,33.2l-3.2,3.7l7.4,6.5l-1.6,1.8l-7.4-6.5l-3.2,3.7L22.9,41l8-9.2L32.5,33.2z"/>
		</g>
		<g class="st0">
			<path class="st1" d="M38,31.8l6.1-5.2l1.2,1.5l-6.1,5.2l2.1,2.5l6.5-5.5l1.3,1.5l-8.3,7.1l-7.7-9l8.1-7l1.3,1.5l-6.3,5.4L38,31.8
				z"/>
		</g>
		<g class="st0">
			<path class="st1" d="M57.2,23.5L51.5,27l0.3,2.8l-2.2,1.4L48.1,18l2.5-1.5l11.2,7.1L59.5,25L57.2,23.5z M55.4,22.3l-4.8-3.1
				l-0.1,0l0.7,5.7L55.4,22.3z"/>
		</g>
		<g class="st0">
			<path class="st1" d="M76.4,17.7l-2.2,0.9l-3.5-8.9l-0.1,0l-0.1,10.3l-1.9,0.8l-7.3-7.5l-0.1,0l3.6,9l-2.1,0.8l-4.4-11.1l3.6-1.4
				l6.4,6.8l0.1,0l0-9.3L72,6.6L76.4,17.7z"/>
		</g>
		<g class="st0">
			<path class="st1" d="M75.9,9.6c-0.6-2.9,1.4-4.5,4.3-5.2c2.9-0.7,5.1,0,5.6,2.1c0.3,1.6-0.3,2.4-1.2,3.2l-0.7,0.6
				c-0.8,0.7-0.9,1.3-0.7,2l0,0.1L80.9,13l-0.1-0.4c-0.3-1.4,0.1-2.2,1.1-3.1l0.7-0.7c0.6-0.5,0.8-1,0.7-1.7
				c-0.2-0.9-1.3-1.2-2.6-0.9c-1.3,0.3-2.6,1.1-2.3,2.9L75.9,9.6z M80.9,14.2l2.7-0.6l0.5,2.4l-2.7,0.6L80.9,14.2z"/>
		</g>
	</g>
</g>
</svg>
