<?xml version="1.0" standalone="no"?>
<!DOCTYPE svg PUBLIC "-//W3C//DTD SVG 20010904//EN"
 "http://www.w3.org/TR/2001/REC-SVG-20010904/DTD/svg10.dtd">
<svg version="1.0" xmlns="http://www.w3.org/2000/svg"
 width="260.000000pt" height="260.000000pt" viewBox="0 0 260.000000 260.000000"
 preserveAspectRatio="xMidYMid meet">
<metadata>
Created by potrace 1.11, written by Peter Selinger 2001-2013
</metadata>
<g transform="translate(0.000000,260.000000) scale(0.100000,-0.100000)"
fill="#000000" stroke="none">
<path d="M1178 2555 c-2 -2 -28 -6 -58 -10 -30 -3 -73 -11 -95 -16 -22 -6 -47
-13 -55 -14 -67 -16 -216 -78 -295 -124 -209 -121 -392 -313 -497 -523 -44
-89 -95 -224 -104 -278 -3 -14 -7 -31 -9 -38 -19 -54 -28 -344 -13 -437 60
-379 277 -704 603 -902 133 -80 313 -144 480 -169 51 -8 292 -8 325 -1 14 3
41 8 61 11 20 3 42 8 50 10 8 3 25 7 39 10 97 18 272 96 395 178 77 51 238
201 303 283 44 56 134 217 165 295 14 36 35 99 46 140 18 69 23 93 38 200 8
53 7 219 -1 275 -14 96 -55 251 -86 325 -131 318 -396 579 -710 702 -48 19
-185 59 -220 64 -19 3 -42 7 -50 10 -17 7 -306 14 -312 9z m337 -110 c169 -34
293 -85 435 -180 264 -176 444 -453 504 -775 22 -120 14 -341 -18 -466 -50
-200 -147 -379 -285 -526 -454 -484 -1207 -495 -1676 -23 -219 220 -334 489
-340 800 -4 166 18 285 81 452 100 263 318 497 580 623 219 105 492 141 719
95z"/>
<path d="M445 1770 l-50 -5 35 -9 c69 -17 108 -61 117 -136 11 -87 68 -166
141 -196 17 -8 32 -16 32 -17 0 -2 -31 -2 -68 -2 l-69 2 8 -41 c5 -23 13 -70
19 -105 18 -104 64 -172 140 -205 l35 -15 -68 -1 -67 0 5 -27 c2 -16 7 -45 10
-67 4 -21 9 -48 11 -60 3 -11 7 -36 9 -54 14 -94 88 -177 178 -199 28 -6 808
-11 802 -5 -3 3 -15 6 -27 8 -39 4 -75 22 -114 56 -39 34 -67 90 -244 473
-246 533 -257 551 -336 587 -37 16 -72 19 -246 21 -112 1 -225 0 -253 -3z"/>
<path d="M1683 1769 c-82 -8 -139 -36 -198 -97 -61 -64 -75 -118 -90 -347 -1
-27 -6 -97 -10 -155 -4 -58 -8 -112 -7 -120 1 -25 138 -303 161 -328 73 -75
233 -70 314 12 37 37 63 91 72 151 5 28 9 55 11 60 1 6 5 29 8 53 l7 42 -63 0
-63 1 30 16 c91 47 124 111 151 288 3 22 7 44 7 50 1 6 -25 10 -61 11 -34 1
-66 5 -70 10 -4 5 -3 6 1 2 13 -10 84 30 112 64 32 38 51 83 59 137 3 23 11
51 17 64 15 28 59 67 79 69 8 0 20 2 27 2 21 2 27 16 7 16 -229 4 -444 4 -501
-1z"/>
</g>
</svg>
